<?xml version="1.0" encoding="UTF-8" standalone="no"?>
<!-- Created with Inkscape (http://www.inkscape.org/) -->

<svg
   width="12.93948mm"
   height="13.11658mm"
   viewBox="0 0 12.93948 13.11658"
   version="1.1"
   id="svg1"
   inkscape:version="1.3.2 (091e20ef0f, 2023-11-25, custom)"
   sodipodi:docname="favicon.svg"
   xmlns:inkscape="http://www.inkscape.org/namespaces/inkscape"
   xmlns:sodipodi="http://sodipodi.sourceforge.net/DTD/sodipodi-0.dtd"
   xmlns="http://www.w3.org/2000/svg"
   xmlns:svg="http://www.w3.org/2000/svg">
  <sodipodi:namedview
     id="namedview1"
     pagecolor="#ffffff"
     bordercolor="#000000"
     borderopacity="0.25"
     inkscape:showpageshadow="2"
     inkscape:pageopacity="0.0"
     inkscape:pagecheckerboard="0"
     inkscape:deskcolor="#d1d1d1"
     inkscape:document-units="mm"
     inkscape:zoom="8.3824395"
     inkscape:cx="14.971775"
     inkscape:cy="17.298067"
     inkscape:window-width="1920"
     inkscape:window-height="1053"
     inkscape:window-x="0"
     inkscape:window-y="27"
     inkscape:window-maximized="1"
     inkscape:current-layer="layer1" />
  <defs
     id="defs1" />
  <g
     inkscape:label="Layer 1"
     inkscape:groupmode="layer"
     id="layer1"
     transform="translate(496.67061,-777.52993)">
    <path
       id="rect1"
       style="opacity:1;fill:#ffea80;stroke-width:0.25;stroke-linecap:round;stroke-linejoin:round"
       d="m -491.78281,777.52993 h 3.16388 c 2.70785,0 4.8878,2.17996 4.8878,4.8878 v 3.34098 c 0,2.70784 -2.17995,4.8878 -4.8878,4.8878 h -3.16388 c -2.70784,0 -4.8878,-2.17996 -4.8878,-4.8878 v -3.34098 c 0,-2.70784 2.17996,-4.8878 4.8878,-4.8878 z" />
    <g
       id="g22"
       transform="matrix(0.14408319,0,0,0.14408319,-405.74753,714.67048)"
       style="stroke-width:6.94045">
      <path
         style="font-weight:bold;font-size:61.0723px;line-height:1.4;font-family:'Cocon® Next Arabic';-inkscape-font-specification:'Cocon® Next Arabic Bold';text-align:center;letter-spacing:0px;word-spacing:0px;direction:rtl;text-anchor:middle;fill:#fff7cc;fill-opacity:1;stroke:none;stroke-width:13.8809;stroke-linecap:round;stroke-dasharray:none"
         d="m -585.81711,476.30502 c -3.47198,0.78611 -6.5509,1.11365 -9.23677,1.11365 h -2.35832 c -5.1752,0 -7.07497,-1.11365 -7.07497,-6.87844 v -1.31018 h 9.04024 c 3.6685,0 5.50275,-1.17916 5.50275,-4.3891 v -3.60299 h -14.54299 c 0.0655,-2.03078 0.19653,-4.71664 0.45857,-6.94395 h 12.11915 c 4.06156,0 6.02682,-1.63772 6.02682,-4.91317 v -3.47197 h -20.63531 c -3.66851,0 -6.02682,1.63772 -6.74743,6.48538 -0.45855,3.01342 -0.72059,7.14047 -0.72059,10.74347 v 6.94394 c 0,10.28492 5.1097,15.65664 14.93603,15.65664 h 3.99605 c 7.337,0 9.23677,-1.96526 9.23677,-5.56825 z m 29.75618,-4.65114 v -21.55244 c 0,-3.40647 -1.83425,-5.69928 -5.69928,-5.69928 h -3.07892 v 13.10179 c -1.63772,-1.57221 -3.86502,-2.55485 -6.02682,-2.55485 -8.7782,0 -13.49484,6.35437 -13.49484,16.1152 0,8.18863 5.96131,15.00156 13.8879,15.00156 10.2849,0 14.41196,-5.69928 14.41196,-14.41198 z m -8.84371,-0.32754 c 0,4.4546 -1.44119,7.07497 -4.71664,7.07497 -3.47198,0 -6.09234,-3.40647 -6.09234,-8.64719 0,-4.06155 1.89977,-7.07497 4.91318,-7.07497 3.20994,0 5.8958,2.29282 5.8958,8.64719 z m -22.28735,30.76341 c 0,-7.20599 -5.89581,-11.79162 -12.18466,-11.79162 -8.51617,0 -14.6085,6.28886 -14.6085,16.11521 0,9.17125 7.27149,15.00155 14.674,15.00155 8.38515,0 11.07102,-3.07892 11.07102,-7.20599 v -3.14443 c -3.79952,2.09629 -7.07496,2.68587 -9.76083,2.68587 -3.20994,0 -5.76479,-1.37569 -6.61641,-3.93054 h 3.34096 c 9.89185,0 14.08442,-1.89976 14.08442,-7.73005 z m -8.45065,-0.85162 c 0,1.31017 -1.24467,1.83425 -7.14048,1.83425 h -2.16179 c 0.19652,-2.68587 2.09628,-5.1097 4.97868,-5.1097 2.62035,0 4.32359,1.11365 4.32359,3.27545 z m 37.56981,19.58717 v -17.22885 c 0,-8.51616 -5.89581,-13.29832 -12.97078,-13.29832 -9.30227,0 -13.49483,6.61641 -13.49483,12.90527 v 12.11915 c 0,3.14443 2.29281,5.50275 5.76478,5.50275 h 3.01342 v -17.09784 c 0,-3.40646 1.70323,-5.37172 4.12706,-5.37172 3.01341,0 4.71664,1.76874 4.71664,5.83029 v 11.13652 c 0,3.14443 2.35832,5.50275 6.02683,5.50275 z"
         id="path20"
         aria-label="Eden"
         sodipodi:nodetypes="cssscsscccsscscssssscsssccsssssssssssssscscsssscsscssssscsssssc" />
      <path
         id="path22"
         style="color:#000000;-inkscape-font-specification:'Cocon® Next Arabic Bold';fill:#86762d;stroke-width:6.94045;stroke-linecap:round;-inkscape-stroke:none"
         d="m -567.07771,442.16363 v 12.6498 c -1.61353,-1.24099 -3.52119,-2.10359 -5.49151,-2.10359 -4.51849,0 -8.07851,1.66366 -10.45585,4.59686 -2.37735,2.9332 -3.57416,7.0877 -3.57416,12.05447 0,8.44889 6.19025,15.53884 14.42412,15.53884 5.24151,0 9.01858,-1.46905 11.45527,-4.1124 2.4367,-2.64334 3.49267,-6.39453 3.49267,-10.83555 v -21.5536 c 0,-1.7995 -0.48928,-3.37498 -1.54595,-4.49597 -1.05667,-1.12099 -2.65252,-1.73886 -4.69108,-1.73886 z m 1.07257,1.07258 h 2.54094 c 1.82645,0 3.0828,0.52703 3.90951,1.40407 0.82671,0.87702 1.25494,2.15121 1.25494,3.75818 v 21.5536 c 0,4.27166 -1.0097,7.72385 -3.20776,10.10831 -2.19805,2.38445 -5.62422,3.76706 -10.6676,3.76706 -7.61925,0 -13.35154,-6.53796 -13.35154,-14.46626 0,-4.794 1.15973,-8.69571 3.33525,-11.37988 2.17551,-2.68418 5.36249,-4.19831 9.62218,-4.19831 1.99927,0 4.11367,0.92329 5.65668,2.40457 l 0.9074,0.87193 z m -42.21476,0.43403 c -1.91406,0 -3.57721,0.43671 -4.83743,1.56092 -1.26021,1.12423 -2.06908,2.88244 -2.4406,5.38175 -0.46477,3.05519 -0.7267,7.19452 -0.7267,10.8228 v 6.94323 c 0,5.23126 1.30365,9.29936 3.93003,12.05448 2.62637,2.75512 6.53031,4.13733 11.54118,4.13733 h 3.99766 c 3.71636,0 6.12159,-0.47749 7.66991,-1.5249 1.54835,-1.04741 2.10304,-2.68392 2.10304,-4.57967 v -4.53587 c -4.93684,1.08894 -7.39563,1.54096 -9.77295,1.54096 -2.46016,-0.10981 -5.40324,0.18218 -7.48146,-1.43399 -0.94971,-0.84572 -1.41625,-2.37645 -1.41625,-5.19993 v -0.77326 h 8.5036 c 1.89171,0 3.38741,-0.29166 4.45217,-1.09974 1.06478,-0.80808 1.58809,-2.11813 1.58809,-3.82526 v -4.1401 h -14.50838 c 0.0649,-1.80508 0.18251,-3.94974 0.388,-5.87231 h 11.6188 c 2.10287,0 3.73942,-0.41828 4.87511,-1.34918 1.13569,-0.9309 1.6862,-2.35467 1.6862,-4.09964 v -4.00762 z m 0,1.07258 h 20.09744 v 2.93504 c 0,1.53045 -0.43032,2.56359 -1.29264,3.2704 -0.86232,0.70682 -2.2374,1.10584 -4.19609,1.10584 h -12.59714 l -0.0549,0.47393 c -0.26544,2.25639 -0.39705,4.95012 -0.46284,6.98868 l -0.0189,0.55541 h 14.56214 v 3.06697 c 0,1.50281 -0.39512,2.38655 -1.16459,2.97052 -0.76948,0.58398 -2.02573,0.8819 -3.80253,0.8819 h -9.57617 v 1.84584 c 0,2.94132 0.48257,4.84971 1.77655,6.00201 2.29746,1.7762 5.44218,1.70449 8.19373,1.70449 2.5569,0 5.4588,-0.58957 8.69815,-1.27933 l 0.002,3.20166 c 10e-4,1.70724 -0.39611,2.85516 -1.63187,3.69113 -1.23578,0.83595 -3.44791,1.34086 -7.0685,1.34086 h -3.99766 c -4.81541,0 -8.379,-1.30225 -10.76404,-3.8042 -2.38505,-2.50196 -3.63458,-6.26141 -3.63458,-11.31503 v -6.94323 c 0,-3.57697 0.26232,-7.69226 0.7145,-10.66372 v -0.002 c 0.34908,-2.34835 1.0785,-3.83221 2.09471,-4.73876 1.01622,-0.90654 2.36849,-1.2882 4.12293,-1.2882 z m 7.13984,43.31606 c -4.39008,0 -8.20171,1.63242 -10.89208,4.54418 -2.6904,2.91175 -4.25264,7.08316 -4.25264,12.10714 0,9.45471 7.5277,15.53884 15.21179,15.53884 4.25822,0 7.14184,-0.77296 9.00026,-2.16235 1.85841,-1.38939 2.60578,-3.40087 2.60578,-5.58075 v -4.05196 l -0.79598,0.4379 c -3.72259,2.05386 -6.8934,2.61854 -9.50078,2.61854 -2.70391,0 -4.73542,-1.03494 -5.71545,-2.85744 h 2.44062 c 4.98021,0 8.56709,-0.45854 11.00129,-1.74108 2.43421,-1.28254 3.61795,-3.48213 3.61795,-6.52584 0,-7.4985 -6.17119,-12.32718 -12.72076,-12.32718 z m 28.33276,0 c -4.77829,0 -8.3199,1.71779 -10.63213,4.26981 -2.31223,2.55201 -3.39789,5.90848 -3.39789,9.17209 v 12.11932 c 0,3.40514 2.58651,6.03804 6.30134,6.03804 h 3.54921 V 502.0246 c 0,-1.61385 0.4059,-2.83136 1.03933,-3.62849 0.63344,-0.79713 1.4845,-1.20672 2.55146,-1.20672 1.40178,0 2.38921,0.38758 3.07751,1.20228 0.68829,0.81471 1.10196,2.13553 1.10196,4.09133 v 11.1371 c 0,3.41258 2.66518,6.03804 6.56352,6.03804 h 3.3541 v -17.76381 c 0,-4.38184 -1.52969,-7.8651 -3.99709,-10.2297 -2.46743,-2.36461 -5.85303,-3.60575 -9.51132,-3.60575 z m -28.33276,1.07313 c 6.02814,0 11.64817,4.34064 11.64817,11.25405 0,2.7866 -0.91142,4.45197 -3.04646,5.57687 -2.13502,1.12492 -5.58864,1.61747 -10.50019,1.61747 h -4.08524 l 0.23503,0.70617 c 0.93511,2.80533 3.76187,4.29698 7.12504,4.29698 2.56155,0 5.70035,-0.65324 9.22419,-2.43229 v 2.35468 c 0,1.94719 -0.59597,3.5403 -2.17676,4.72213 -1.58079,1.18183 -4.22979,1.94839 -8.35671,1.94839 -7.12087,0 -14.1392,-5.57852 -14.1392,-14.46626 0,-4.8023 1.48514,-8.68897 3.96992,-11.37822 2.4848,-2.68924 5.97617,-4.19997 10.10221,-4.19997 z m 28.33276,0 c 3.41662,0 6.51822,1.15037 8.76744,3.30588 2.24922,2.1555 3.66839,5.32213 3.66839,9.45644 v 16.69124 h -2.28152 c -3.43863,0 -5.49096,-2.08921 -5.49095,-4.96547 V 502.483 c 0,-2.10573 -0.43638,-3.69973 -1.35306,-4.78476 -0.91668,-1.08505 -2.28734,-1.58198 -3.89898,-1.58198 -1.35686,0 -2.56765,0.57425 -3.39179,1.61136 -0.82414,1.03711 -1.27158,2.50436 -1.27158,4.29698 v 16.56097 h -2.47663 c -3.2291,0 -5.22876,-2.08176 -5.22876,-4.96547 v -12.11932 c 0,-3.02525 1.00946,-6.12309 3.11908,-8.4515 2.1096,-2.32839 5.31438,-3.91727 9.83836,-3.91727 z m -28.92143,6.59068 c -3.18305,0 -5.30105,2.69516 -5.51422,5.60847 l -0.0422,0.57371 h 2.73826 c 2.96379,0 4.76558,-0.11746 5.92664,-0.444 0.58051,-0.16328 1.02265,-0.38691 1.32867,-0.72892 0.306,-0.342 0.42293,-0.78373 0.42293,-1.19618 0,-1.22176 -0.51872,-2.24144 -1.39962,-2.88295 -0.8809,-0.64152 -2.07437,-0.93013 -3.46053,-0.93013 z m 29.16492,-35.28199 c -1.68548,0 -3.10087,0.87277 -4.03091,2.24993 -0.93002,1.37717 -1.41846,3.24687 -1.41846,5.36123 0,2.70975 0.6739,4.9821 1.84583,6.60345 1.17195,1.62135 2.87116,2.57917 4.78255,2.57917 1.78073,0 3.18348,-0.76901 4.03922,-2.11633 0.85574,-1.34732 1.21559,-3.20969 1.21559,-5.49483 0,-3.25275 -0.68578,-5.5395 -1.86081,-7.03745 -1.17502,-1.49795 -2.84035,-2.14517 -4.57301,-2.14517 z m -29.16492,36.35454 c 1.2342,0 2.20225,0.26928 2.82807,0.72504 0.6258,0.45575 0.9595,1.07541 0.9595,2.01546 0,0.24262 -0.0391,0.35694 -0.15077,0.48168 -0.11161,0.12475 -0.34943,0.27923 -0.81705,0.41075 -0.93521,0.26303 -2.70583,0.40408 -5.63783,0.40408 h -1.49164 c 0.38752,-2.19967 1.93963,-4.03701 4.30972,-4.03701 z m 29.16492,-35.28199 c 1.47727,0 2.76065,0.49738 3.73103,1.73443 0.97038,1.23704 1.62966,3.27399 1.62966,6.37561 0,2.16946 -0.36336,3.84462 -1.04709,4.92112 -0.68372,1.07648 -1.6399,1.61691 -3.13459,1.61691 -1.56059,0 -2.90718,-0.74257 -3.9134,-2.13463 -1.00622,-1.39205 -1.6424,-3.44389 -1.6424,-5.97486 0,-1.94713 0.46289,-3.6171 1.2361,-4.76203 0.7732,-1.14493 1.81276,-1.77655 3.14069,-1.77655 z"
         sodipodi:nodetypes="ccsssssssssccssssssssscccsscssssssscccscssscccssscsccssscccccssscscsccssssssccsccssssssccscssssssssscssssssscsssssssccscssssssssscscssssscssssscccsssssccssssssssssssssscssssssssss" />
    </g>
  </g>
</svg>
