<svg width="134" height="134" viewBox="0 0 134 134" fill="none" xmlns="http://www.w3.org/2000/svg">
<path d="M132.383 4.44694C130.926 2.96451 128.949 2.02648 127.023 1.40671C124.751 0.729452 122.411 0.308074 120.046 0.150415C114.854 -0.259974 108.371 0.150415 101.185 1.61609C86.8045 4.56419 69.2079 11.8507 52.8843 25.9631C36.5608 40.0754 26.3512 57.1526 21.4097 71.3823C18.9474 78.4761 17.7246 85.0675 17.8167 90.3774C17.8586 93.024 18.2355 95.5701 19.1065 97.7477V97.7477C19.3688 98.3877 19.3253 99.1228 18.927 99.6883C12.5733 108.709 6.48308 117.913 0.663988 127.287C0.0581132 128.267 -0.143427 129.443 0.101926 130.568C0.347279 131.694 1.02032 132.679 1.97892 133.318C2.45219 133.625 2.98238 133.835 3.53813 133.934C4.09387 134.034 4.66388 134.02 5.21442 133.895C5.76496 133.77 6.28484 133.536 6.74331 133.207C7.20177 132.877 7.5895 132.459 7.88354 131.978C12.1935 125.041 16.652 118.199 21.2559 111.455C23.9335 107.533 29.2357 106.379 33.9812 106.198V106.198C38.2777 106.031 43.1773 104.624 48.4119 102.094C58.8811 97.0274 71.3939 87.1278 84.4511 71.5917L97.1649 58.61C97.9707 57.7813 98.4215 56.6711 98.4215 55.5153C98.4215 54.3595 97.9707 53.2492 97.1649 52.4206V52.4206C95.2224 50.4382 96.9336 47.1259 99.6744 47.5628L102.039 47.9398C102.713 48.0487 103.404 47.9912 104.05 47.7722C104.697 47.5533 105.28 47.1795 105.75 46.6835L111.302 40.9548C116.855 35.2596 122.123 29.8576 126.068 25.1088C128.698 21.9429 130.968 18.8106 132.383 15.8373C133.748 12.9479 134.712 9.36324 133.321 5.88749C133.112 5.34761 132.792 4.85709 132.383 4.44694ZM33.6629 97.4629C32.5539 97.5164 32.0313 96.2716 32.694 95.3807C44.7365 79.1912 58.0477 63.5984 72.687 49.9536C75.6062 47.2328 80.1484 47.4076 82.9424 50.257V50.257C85.8045 53.1759 85.8063 57.848 82.9463 60.769L78.2868 65.5279L78.0607 65.7792C65.4976 80.7626 53.8475 89.7912 44.7519 94.1966C40.1957 96.3993 36.4603 97.3624 33.6629 97.4629V97.4629ZM98.7513 38.5654C94.638 37.9124 93.3184 32.7218 96.7267 30.3284C103.55 25.5366 110.619 21.2229 117.936 17.4936C119.294 16.8016 120.526 18.2898 119.544 19.4555V19.4555C115.842 23.9195 110.934 28.953 105.465 34.5645L102.918 37.1812C101.837 38.2923 100.283 38.8085 98.7513 38.5654V38.5654ZM102.877 10.184C106.004 9.52173 107.131 13.4063 104.381 15.0367C78.2006 30.5587 55.4263 52.9133 35.8651 77.1822C32.8104 80.9719 27.8759 78.9055 29.4668 74.3052V74.3052C33.9309 61.4492 43.2862 45.7036 58.4037 32.6298C73.538 19.556 89.7778 12.8641 102.877 10.184V10.184Z" fill="#FFEA80"/>
</svg>
