<?xml version="1.0" encoding="UTF-8" standalone="no"?>
<!-- Created with Inkscape (http://www.inkscape.org/) -->

<svg
   width="137.21689mm"
   height="41.987259mm"
   viewBox="0 0 137.21689 41.987259"
   version="1.1"
   id="svg1"
   inkscape:version="1.3.2 (091e20ef0f, 2023-11-25, custom)"
   sodipodi:docname="Logo.svg"
   xmlns:inkscape="http://www.inkscape.org/namespaces/inkscape"
   xmlns:sodipodi="http://sodipodi.sourceforge.net/DTD/sodipodi-0.dtd"
   xmlns="http://www.w3.org/2000/svg"
   xmlns:svg="http://www.w3.org/2000/svg">
  <sodipodi:namedview
     id="namedview1"
     pagecolor="#ffffff"
     bordercolor="#000000"
     borderopacity="0.25"
     inkscape:showpageshadow="2"
     inkscape:pageopacity="0.0"
     inkscape:pagecheckerboard="0"
     inkscape:deskcolor="#d1d1d1"
     inkscape:document-units="mm"
     inkscape:zoom="0.37045499"
     inkscape:cx="-319.87692"
     inkscape:cy="148.46608"
     inkscape:window-width="1920"
     inkscape:window-height="1053"
     inkscape:window-x="0"
     inkscape:window-y="27"
     inkscape:window-maximized="1"
     inkscape:current-layer="layer1" />
  <defs
     id="defs1" />
  <g
     inkscape:label="Layer 1"
     inkscape:groupmode="layer"
     id="layer1"
     transform="translate(597.31952,-601.8655)">
    <g
       id="g22"
       transform="translate(16.867804,158.60367)">
      <path
         style="font-weight:bold;font-size:61.0723px;line-height:1.4;font-family:'Cocon® Next Arabic';-inkscape-font-specification:'Cocon® Next Arabic Bold';text-align:center;letter-spacing:0px;word-spacing:0px;direction:rtl;text-anchor:middle;fill:#ffea80;fill-opacity:1;stroke:none;stroke-width:2;stroke-linecap:round;stroke-dasharray:none"
         d="m -585.83918,475.09096 c -3.23683,0.73287 -6.10723,1.03823 -8.6112,1.03823 h -2.1986 c -4.82471,0 -6.59581,-1.03823 -6.59581,-6.41259 v -1.22145 h 8.42798 c 3.42005,0 5.13007,-1.0993 5.13007,-4.09184 v -3.35898 h -13.55805 c 0.0611,-1.89324 0.18322,-4.3972 0.42751,-6.47366 h 11.29837 c 3.78649,0 5.61865,-1.52681 5.61865,-4.58042 v -3.23683 h -19.23777 c -3.42005,0 -5.61865,1.5268 -6.29045,6.04615 -0.4275,2.80933 -0.67179,6.65688 -0.67179,10.01586 v 6.47366 c 0,9.58836 4.76364,14.59628 13.92448,14.59628 h 3.72541 c 6.8401,0 8.6112,-1.83216 8.6112,-5.19114 z m 27.74092,-4.33613 v -20.09279 c 0,-3.17576 -1.71002,-5.31329 -5.31329,-5.31329 h -2.8704 v 12.21446 c -1.5268,-1.46573 -3.60326,-2.38182 -5.61865,-2.38182 -8.18369,0 -12.58089,5.92402 -12.58089,15.02379 0,7.63404 5.55758,13.98556 12.94733,13.98556 9.58835,0 13.4359,-5.31329 13.4359,-13.43591 z m -8.24476,-0.30536 c 0,4.15291 -1.34359,6.59581 -4.3972,6.59581 -3.23684,0 -5.67973,-3.17576 -5.67973,-8.06155 0,-3.78648 1.7711,-6.59581 4.58043,-6.59581 2.99254,0 5.4965,2.13753 5.4965,8.06155 z m 36.5133,-4.27506 c 0,-6.71796 -5.49651,-10.99302 -11.35945,-10.99302 -7.9394,0 -13.61912,5.86294 -13.61912,15.02379 0,8.55012 6.77902,13.98556 13.68019,13.98556 7.81726,0 10.32122,-2.8704 10.32122,-6.71796 v -2.93147 c -3.54219,1.95432 -6.5958,2.50397 -9.09977,2.50397 -2.99254,0 -5.37436,-1.28252 -6.1683,-3.66434 h 3.11469 c 9.22191,0 13.13054,-1.7711 13.13054,-7.20653 z m -7.87833,-0.79394 c 0,1.22144 -1.16037,1.71002 -6.65688,1.71002 h -2.01538 c 0.18321,-2.50396 1.95431,-4.76364 4.64149,-4.76364 2.44289,0 4.03077,1.03823 4.03077,3.05362 z m 35.02537,18.26061 v -16.06201 c 0,-7.9394 -5.49651,-12.39768 -12.09232,-12.39768 -8.67227,0 -12.58089,6.16831 -12.58089,12.03125 v 11.29837 c 0,2.93147 2.13753,5.13007 5.37436,5.13007 h 2.80933 v -15.93987 c 0,-3.17576 1.58788,-5.00792 3.84755,-5.00792 2.80933,0 4.39721,1.64895 4.39721,5.43543 v 10.38229 c 0,2.93147 2.1986,5.13007 5.61865,5.13007 z"
         id="path20"
         aria-label="Eden" />
      <path
         id="path21"
         style="color:#000000;-inkscape-font-specification:'Cocon® Next Arabic Bold';fill:#86762d;stroke-linecap:round;-inkscape-stroke:none"
         d="m -568.36892,443.26183 v 11.79308 c -1.50425,-1.15694 -3.28271,-1.96112 -5.11959,-1.96112 -4.21247,0 -7.53139,1.55098 -9.74772,4.28553 -2.21634,2.73455 -3.3321,6.60768 -3.3321,11.23807 0,7.87668 5.77101,14.48646 13.44724,14.48646 4.88652,0 8.40779,-1.36956 10.67945,-3.83388 2.27167,-2.46432 3.25613,-5.96146 3.25613,-10.10171 V 449.0744 c 0,-1.67763 -0.45615,-3.14641 -1.44125,-4.19148 -0.98511,-1.04507 -2.47288,-1.62109 -4.37338,-1.62109 z m 0.99993,0.99994 h 2.36885 c 1.70276,0 2.87402,0.49133 3.64474,1.30897 0.77072,0.81763 1.16995,2.00552 1.16995,3.50366 v 20.09386 c 0,3.98236 -0.94132,7.20075 -2.99051,9.42372 -2.04919,2.22296 -5.24332,3.51193 -9.94513,3.51193 -7.10323,0 -12.4473,-6.09517 -12.4473,-13.48652 0,-4.46932 1.08119,-8.10678 3.10937,-10.60917 2.02817,-2.50239 4.99931,-3.91397 8.97051,-3.91397 1.86387,0 3.83507,0.86076 5.27358,2.24172 l 0.84594,0.81287 z m -39.35573,0.40463 c -1.78443,0 -3.33494,0.40713 -4.50981,1.45521 -1.17486,1.04809 -1.92895,2.68722 -2.27531,5.01726 -0.43329,2.84828 -0.67748,6.70727 -0.67748,10.08982 v 6.47299 c 0,4.87697 1.21536,8.66956 3.66386,11.23808 2.4485,2.56853 6.08804,3.85713 10.75955,3.85713 h 3.72691 c 3.46467,0 5.707,-0.44515 7.15046,-1.42162 1.44349,-0.97648 1.96061,-2.50215 1.96061,-4.26951 v -4.22868 c -4.60249,1.01519 -6.89475,1.4366 -9.11107,1.4366 -2.29354,-0.10237 -5.0373,0.16984 -6.97477,-1.33687 -0.88539,-0.78844 -1.32033,-2.2155 -1.32033,-4.84776 v -0.72089 h 7.92768 c 1.7636,0 3.158,-0.27191 4.15065,-1.02526 0.99266,-0.75335 1.48053,-1.97468 1.48053,-3.56619 V 458.957 h -13.52579 c 0.0605,-1.68283 0.17015,-3.68224 0.36173,-5.4746 h 10.8319 c 1.96045,0 3.48617,-0.38996 4.54494,-1.25781 1.05878,-0.86785 1.572,-2.1952 1.572,-3.82199 v -3.7362 z m 0,0.99994 h 18.73632 v 2.73626 c 0,1.4268 -0.40117,2.38997 -1.20509,3.04891 -0.80392,0.65895 -2.08587,1.03095 -3.91191,1.03095 h -11.74399 l -0.0512,0.44183 c -0.24746,2.10357 -0.37016,4.61487 -0.43149,6.51537 l -0.0176,0.51779 h 13.57591 v 2.85926 c 0,1.40103 -0.36836,2.22492 -1.08572,2.76934 -0.71737,0.54443 -1.88854,0.82217 -3.545,0.82217 h -8.92762 v 1.72083 c 0,2.74211 0.44989,4.52126 1.65623,5.59552 2.14187,1.6559 5.07361,1.58905 7.63881,1.58905 2.38373,0 5.0891,-0.54964 8.10906,-1.19269 l 0.002,2.98483 c 10e-4,1.59161 -0.36928,2.66179 -1.52135,3.44114 -1.15208,0.77934 -3.2144,1.25005 -6.58978,1.25005 h -3.72691 c -4.48929,0 -7.81153,-1.21405 -10.03504,-3.54656 -2.22352,-2.33251 -3.38843,-5.83735 -3.38843,-10.54871 v -6.47299 c 0,-3.33472 0.24456,-7.1713 0.66611,-9.94151 v -0.002 c 0.32544,-2.1893 1.00546,-3.57267 1.95285,-4.41782 0.94739,-0.84514 2.20808,-1.20096 3.8437,-1.20096 z m 63.94751,7.42745 c -4.09276,0 -7.64624,1.52187 -10.15441,4.23643 -2.50819,2.71455 -3.96462,6.60344 -3.96462,11.28717 0,8.81438 7.01788,14.48646 14.18156,14.48646 3.96982,0 6.65815,-0.72061 8.39071,-2.0159 1.73254,-1.2953 2.4293,-3.17055 2.4293,-5.20279 v -3.77754 l -0.74207,0.40824 c -3.47048,1.91476 -6.42654,2.4412 -8.85734,2.4412 -2.52078,0 -4.41471,-0.96485 -5.32836,-2.66392 h 2.27532 c 4.64293,0 7.98688,-0.42748 10.25622,-1.62316 2.26935,-1.19568 3.37292,-3.2463 3.37292,-6.08387 0,-6.99066 -5.75324,-11.49232 -11.85923,-11.49232 z m 26.4139,0 c -4.45468,0 -7.75643,1.60146 -9.91206,3.98064 -2.15563,2.37917 -3.16777,5.50832 -3.16777,8.5509 v 11.29853 c 0,3.17452 2.41134,5.62911 5.87458,5.62911 h 3.30884 v -16.4393 c 0,-1.50455 0.37841,-2.6396 0.96894,-3.38274 0.59054,-0.74315 1.38396,-1.125 2.37866,-1.125 1.30684,0 2.2274,0.36133 2.86908,1.12086 0.64168,0.75953 1.02733,1.9909 1.02733,3.81424 v 10.38283 c 0,3.18146 2.48468,5.62911 6.119,5.62911 h 3.12694 v -16.56074 c 0,-4.08508 -1.42609,-7.33243 -3.72638,-9.53689 -2.30032,-2.20446 -5.45663,-3.36155 -8.86716,-3.36155 z m -26.4139,1.00046 c 5.61988,0 10.85929,4.04666 10.85929,10.49186 0,2.59787 -0.8497,4.15045 -2.84014,5.19917 -1.99042,1.04873 -5.21014,1.50792 -9.78906,1.50792 h -3.80856 l 0.21911,0.65835 c 0.87178,2.61533 3.5071,4.00596 6.64249,4.00596 2.38807,0 5.31429,-0.609 8.59948,-2.26756 v 2.19521 c 0,1.81531 -0.55561,3.30053 -2.02934,4.40232 -1.47373,1.10179 -3.94332,1.81643 -7.79074,1.81643 -6.63861,0 -13.18162,-5.20071 -13.18162,-13.48652 0,-4.47706 1.38456,-8.1005 3.70106,-10.60762 2.31651,-2.50711 5.57143,-3.91552 9.41803,-3.91552 z m 26.4139,0 c 3.18523,0 6.07677,1.07246 8.17366,3.08198 2.09689,2.00952 3.41994,4.96169 3.41994,8.816 v 15.56081 h -2.127 c -3.20575,0 -5.11908,-1.94772 -5.11907,-4.62918 v -10.38283 c 0,-1.96312 -0.40683,-3.44916 -1.26142,-4.46071 -0.8546,-1.01156 -2.13243,-1.47484 -3.63492,-1.47484 -1.26497,0 -2.39376,0.53536 -3.16208,1.50223 -0.76832,0.96687 -1.18546,2.33475 -1.18546,4.00596 v 15.43937 h -2.3089 c -3.01041,0 -4.87464,-1.94077 -4.87464,-4.62918 v -11.29853 c 0,-2.82036 0.9411,-5.7084 2.90784,-7.87911 1.96673,-2.1707 4.95446,-3.65197 9.17205,-3.65197 z m -26.9627,6.14432 c -2.96748,0 -4.94204,2.51262 -5.14077,5.22863 l -0.0393,0.53485 h 2.55281 c 2.76306,0 4.44282,-0.1095 5.52525,-0.41393 0.54119,-0.15222 0.95339,-0.3607 1.23868,-0.67955 0.28528,-0.31884 0.39429,-0.73065 0.39429,-1.11517 0,-1.13901 -0.48359,-2.08963 -1.30483,-2.6877 -0.82124,-0.59807 -1.93388,-0.86713 -3.22616,-0.86713 z m -30.10152,0.0625 c -1.57133,0 -2.89086,0.81366 -3.75791,2.09755 -0.86704,1.2839 -1.3224,3.02697 -1.3224,4.99814 0,2.52623 0.62826,4.64468 1.72082,6.15622 1.09258,1.51154 2.67671,2.4045 4.45865,2.4045 1.66013,0 2.96788,-0.71693 3.76566,-1.973 0.79778,-1.25608 1.13326,-2.99232 1.13326,-5.12269 0,-3.03246 -0.63933,-5.16434 -1.73478,-6.56084 -1.09544,-1.3965 -2.64799,-1.99988 -4.2633,-1.99988 z m 30.10152,0.93741 c 1.15061,0 2.0531,0.25104 2.63653,0.67593 0.58342,0.42489 0.89452,1.00258 0.89452,1.87896 0,0.22619 -0.0365,0.33277 -0.14056,0.44906 -0.10405,0.1163 -0.32576,0.26032 -0.76171,0.38293 -0.87188,0.24522 -2.52258,0.37672 -5.25601,0.37672 h -1.39061 c 0.36127,-2.0507 1.80826,-3.7636 4.01784,-3.7636 z m -30.10152,0.0625 c 1.37722,0 2.57368,0.46369 3.47834,1.61696 0.90466,1.15326 1.51929,3.05226 1.51929,5.94382 0,2.02253 -0.33875,3.58424 -0.97617,4.58783 -0.63742,1.00358 -1.52884,1.50741 -2.9223,1.50741 -1.4549,0 -2.71029,-0.69228 -3.64836,-1.99006 -0.93808,-1.29778 -1.53117,-3.21065 -1.53117,-5.57021 0,-1.81526 0.43154,-3.37213 1.15238,-4.43952 0.72084,-1.06739 1.68999,-1.65623 2.92799,-1.65623 z" />
      <path
         id="path22"
         style="color:#000000;-inkscape-font-specification:'Cocon® Next Arabic Bold';fill:#86762d;stroke-linecap:round;-inkscape-stroke:none"
         d="m -568.36892,443.26183 v 11.79308 c -1.50425,-1.15694 -3.28271,-1.96112 -5.11959,-1.96112 -4.21247,0 -7.53139,1.55098 -9.74772,4.28553 -2.21634,2.73455 -3.3321,6.60768 -3.3321,11.23807 0,7.87668 5.77101,14.48646 13.44724,14.48646 4.88652,0 8.40779,-1.36956 10.67945,-3.83388 2.27167,-2.46432 3.25613,-5.96146 3.25613,-10.10171 V 449.0744 c 0,-1.67763 -0.45615,-3.14641 -1.44125,-4.19148 -0.98511,-1.04507 -2.47288,-1.62109 -4.37338,-1.62109 z m 0.99993,0.99994 h 2.36885 c 1.70276,0 2.87402,0.49133 3.64474,1.30897 0.77072,0.81763 1.16995,2.00552 1.16995,3.50366 v 20.09386 c 0,3.98236 -0.94132,7.20075 -2.99051,9.42372 -2.04919,2.22296 -5.24332,3.51193 -9.94513,3.51193 -7.10323,0 -12.4473,-6.09517 -12.4473,-13.48652 0,-4.46932 1.08119,-8.10678 3.10937,-10.60917 2.02817,-2.50239 4.99931,-3.91397 8.97051,-3.91397 1.86387,0 3.83507,0.86076 5.27358,2.24172 l 0.84594,0.81287 z m -39.35573,0.40463 c -1.78443,0 -3.33494,0.40713 -4.50981,1.45521 -1.17486,1.04809 -1.92895,2.68722 -2.27531,5.01726 -0.43329,2.84828 -0.67748,6.70727 -0.67748,10.08982 v 6.47299 c 0,4.87697 1.21536,8.66956 3.66386,11.23808 2.4485,2.56853 6.08804,3.85713 10.75955,3.85713 h 3.72691 c 3.46467,0 5.707,-0.44515 7.15046,-1.42162 1.44349,-0.97648 1.96061,-2.50215 1.96061,-4.26951 v -4.22868 c -4.60249,1.01519 -6.89475,1.4366 -9.11107,1.4366 -2.29354,-0.10237 -5.0373,0.16984 -6.97477,-1.33687 -0.88539,-0.78844 -1.32033,-2.2155 -1.32033,-4.84776 v -0.72089 h 7.92768 c 1.7636,0 3.158,-0.27191 4.15065,-1.02526 0.99266,-0.75335 1.48053,-1.97468 1.48053,-3.56619 V 458.957 h -13.52579 c 0.0605,-1.68283 0.17015,-3.68224 0.36173,-5.4746 h 10.8319 c 1.96045,0 3.48617,-0.38996 4.54494,-1.25781 1.05878,-0.86785 1.572,-2.1952 1.572,-3.82199 v -3.7362 z m 0,0.99994 h 18.73632 v 2.73626 c 0,1.4268 -0.40117,2.38997 -1.20509,3.04891 -0.80392,0.65895 -2.08587,1.03095 -3.91191,1.03095 h -11.74399 l -0.0512,0.44183 c -0.24746,2.10357 -0.37016,4.61487 -0.43149,6.51537 l -0.0176,0.51779 h 13.57591 v 2.85926 c 0,1.40103 -0.36836,2.22492 -1.08572,2.76934 -0.71737,0.54443 -1.88854,0.82217 -3.545,0.82217 h -8.92762 v 1.72083 c 0,2.74211 0.44989,4.52126 1.65623,5.59552 2.14187,1.6559 5.07361,1.58905 7.63881,1.58905 2.38373,0 5.0891,-0.54964 8.10906,-1.19269 l 0.002,2.98483 c 10e-4,1.59161 -0.36928,2.66179 -1.52135,3.44114 -1.15208,0.77934 -3.2144,1.25005 -6.58978,1.25005 h -3.72691 c -4.48929,0 -7.81153,-1.21405 -10.03504,-3.54656 -2.22352,-2.33251 -3.38843,-5.83735 -3.38843,-10.54871 v -6.47299 c 0,-3.33472 0.24456,-7.1713 0.66611,-9.94151 v -0.002 c 0.32544,-2.1893 1.00546,-3.57267 1.95285,-4.41782 0.94739,-0.84514 2.20808,-1.20096 3.8437,-1.20096 z m 63.94751,7.42745 c -4.09276,0 -7.64624,1.52187 -10.15441,4.23643 -2.50819,2.71455 -3.96462,6.60344 -3.96462,11.28717 0,8.81438 7.01788,14.48646 14.18156,14.48646 3.96982,0 6.65815,-0.72061 8.39071,-2.0159 1.73254,-1.2953 2.4293,-3.17055 2.4293,-5.20279 v -3.77754 l -0.74207,0.40824 c -3.47048,1.91476 -6.42654,2.4412 -8.85734,2.4412 -2.52078,0 -4.41471,-0.96485 -5.32836,-2.66392 h 2.27532 c 4.64293,0 7.98688,-0.42748 10.25622,-1.62316 2.26935,-1.19568 3.37292,-3.2463 3.37292,-6.08387 0,-6.99066 -5.75324,-11.49232 -11.85923,-11.49232 z m 26.4139,0 c -4.45468,0 -7.75643,1.60146 -9.91206,3.98064 -2.15563,2.37917 -3.16777,5.50832 -3.16777,8.5509 v 11.29853 c 0,3.17452 2.41134,5.62911 5.87458,5.62911 h 3.30884 v -16.4393 c 0,-1.50455 0.37841,-2.6396 0.96894,-3.38274 0.59054,-0.74315 1.38396,-1.125 2.37866,-1.125 1.30684,0 2.2274,0.36133 2.86908,1.12086 0.64168,0.75953 1.02733,1.9909 1.02733,3.81424 v 10.38283 c 0,3.18146 2.48468,5.62911 6.119,5.62911 h 3.12694 v -16.56074 c 0,-4.08508 -1.42609,-7.33243 -3.72638,-9.53689 -2.30032,-2.20446 -5.45663,-3.36155 -8.86716,-3.36155 z m -26.4139,1.00046 c 5.61988,0 10.85929,4.04666 10.85929,10.49186 0,2.59787 -0.8497,4.15045 -2.84014,5.19917 -1.99042,1.04873 -5.21014,1.50792 -9.78906,1.50792 h -3.80856 l 0.21911,0.65835 c 0.87178,2.61533 3.5071,4.00596 6.64249,4.00596 2.38807,0 5.31429,-0.609 8.59948,-2.26756 v 2.19521 c 0,1.81531 -0.55561,3.30053 -2.02934,4.40232 -1.47373,1.10179 -3.94332,1.81643 -7.79074,1.81643 -6.63861,0 -13.18162,-5.20071 -13.18162,-13.48652 0,-4.47706 1.38456,-8.1005 3.70106,-10.60762 2.31651,-2.50711 5.57143,-3.91552 9.41803,-3.91552 z m 26.4139,0 c 3.18523,0 6.07677,1.07246 8.17366,3.08198 2.09689,2.00952 3.41994,4.96169 3.41994,8.816 v 15.56081 h -2.127 c -3.20575,0 -5.11908,-1.94772 -5.11907,-4.62918 v -10.38283 c 0,-1.96312 -0.40683,-3.44916 -1.26142,-4.46071 -0.8546,-1.01156 -2.13243,-1.47484 -3.63492,-1.47484 -1.26497,0 -2.39376,0.53536 -3.16208,1.50223 -0.76832,0.96687 -1.18546,2.33475 -1.18546,4.00596 v 15.43937 h -2.3089 c -3.01041,0 -4.87464,-1.94077 -4.87464,-4.62918 v -11.29853 c 0,-2.82036 0.9411,-5.7084 2.90784,-7.87911 1.96673,-2.1707 4.95446,-3.65197 9.17205,-3.65197 z m -26.9627,6.14432 c -2.96748,0 -4.94204,2.51262 -5.14077,5.22863 l -0.0393,0.53485 h 2.55281 c 2.76306,0 4.44282,-0.1095 5.52525,-0.41393 0.54119,-0.15222 0.95339,-0.3607 1.23868,-0.67955 0.28528,-0.31884 0.39429,-0.73065 0.39429,-1.11517 0,-1.13901 -0.48359,-2.08963 -1.30483,-2.6877 -0.82124,-0.59807 -1.93388,-0.86713 -3.22616,-0.86713 z m -30.10152,0.0625 c -1.57133,0 -2.89086,0.81366 -3.75791,2.09755 -0.86704,1.2839 -1.3224,3.02697 -1.3224,4.99814 0,2.52623 0.62826,4.64468 1.72082,6.15622 1.09258,1.51154 2.67671,2.4045 4.45865,2.4045 1.66013,0 2.96788,-0.71693 3.76566,-1.973 0.79778,-1.25608 1.13326,-2.99232 1.13326,-5.12269 0,-3.03246 -0.63933,-5.16434 -1.73478,-6.56084 -1.09544,-1.3965 -2.64799,-1.99988 -4.2633,-1.99988 z m 30.10152,0.93741 c 1.15061,0 2.0531,0.25104 2.63653,0.67593 0.58342,0.42489 0.89452,1.00258 0.89452,1.87896 0,0.22619 -0.0365,0.33277 -0.14056,0.44906 -0.10405,0.1163 -0.32576,0.26032 -0.76171,0.38293 -0.87188,0.24522 -2.52258,0.37672 -5.25601,0.37672 h -1.39061 c 0.36127,-2.0507 1.80826,-3.7636 4.01784,-3.7636 z m -30.10152,0.0625 c 1.37722,0 2.57368,0.46369 3.47834,1.61696 0.90466,1.15326 1.51929,3.05226 1.51929,5.94382 0,2.02253 -0.33875,3.58424 -0.97617,4.58783 -0.63742,1.00358 -1.52884,1.50741 -2.9223,1.50741 -1.4549,0 -2.71029,-0.69228 -3.64836,-1.99006 -0.93808,-1.29778 -1.53117,-3.21065 -1.53117,-5.57021 0,-1.81526 0.43154,-3.37213 1.15238,-4.43952 0.72084,-1.06739 1.68999,-1.65623 2.92799,-1.65623 z" />
    </g>
    <path
       style="font-weight:bold;font-size:16.4653px;line-height:1.4;font-family:'Cocon® Next Arabic';-inkscape-font-specification:'Cocon® Next Arabic Bold';text-align:center;letter-spacing:0px;word-spacing:0px;direction:rtl;text-anchor:middle;fill:#86762d;stroke-width:3.00001;stroke-linecap:round"
       d="m -476.63379,639.17661 c 0,-1.23489 -0.87266,-1.95937 -2.45333,-2.22281 -1.02085,-0.14819 -1.20197,-0.24698 -1.20197,-0.46103 0,-0.31284 0.27991,-0.54335 1.16904,-0.54335 0.77387,0 1.54774,0.27991 2.32161,0.65861 v -0.90559 c 0,-0.79034 -0.72448,-1.74533 -2.48626,-1.74533 -1.94291,0 -3.21074,1.25137 -3.21074,2.66738 0,1.20197 0.82327,1.89351 2.40394,2.12403 0.97145,0.13172 1.25136,0.26344 1.25136,0.52689 0,0.36223 -0.34577,0.54335 -1.05378,0.54335 -0.77387,0 -1.64653,-0.32931 -2.40393,-0.67508 v 1.02085 c 0,0.83973 1.05378,1.6136 2.50272,1.6136 2.02524,0 3.16134,-0.97145 3.16134,-2.60152 z m 8.89126,-1.49834 c 0,-1.89351 -1.41601,-3.72116 -3.44124,-3.72116 -2.63445,0 -3.73763,1.7124 -3.73763,4.19866 v 4.24804 c 0,0.88913 0.70801,1.44895 1.46541,1.44895 h 0.77387 v -2.66738 c 0.39517,0.3787 0.90559,0.59275 1.53128,0.59275 2.20635,0 3.40831,-1.71239 3.40831,-4.09986 z m -2.27221,0.44457 c 0,0.97145 -0.49396,1.64652 -1.20197,1.64652 -0.88912,0 -1.49834,-0.708 -1.49834,-1.97583 0,-1.07025 0.46103,-1.81118 1.26783,-1.81118 0.97145,0 1.43248,0.64214 1.43248,2.14049 z m 9.91212,0.87266 v -1.6136 c 0,-2.61799 -1.53128,-3.39186 -3.21074,-3.39186 -2.02523,0 -2.78263,1.05378 -2.78263,1.95938 v 0.79033 c 0.3293,-0.32931 1.35015,-0.8068 2.53565,-0.8068 0.82327,0 1.21844,0.21405 1.26783,0.92206 h -0.3787 c -2.76617,0 -3.73762,1.03731 -3.73762,2.43686 0,1.41602 1.2349,2.4698 3.06254,2.4698 h 0.34577 c 1.69593,0 2.8979,-1.13611 2.8979,-2.76617 z m -2.17342,0.0165 c 0,0.55982 -0.29638,0.8562 -0.88913,0.8562 -0.62568,0 -0.97145,-0.24698 -0.97145,-0.64215 0,-0.4281 0.31284,-0.65861 1.46541,-0.65861 h 0.39517 z"
       id="text22"
       aria-label="spa" />
  </g>
</svg>
