<svg width="144" height="144" viewBox="0 0 144 144" fill="none" xmlns="http://www.w3.org/2000/svg">
<path d="M63.6439 112.2C68.4715 94.6125 85.3514 82.05 104.795 84.127C123.306 86.1035 138.022 101.815 138.954 120.508C139.187 125.432 138.522 130.156 137.09 134.544C136.224 137.224 133.627 139 130.797 139H31.6419C14.8352 139 2.23017 123.526 5.52626 106.944L21.2319 27.9267C23.8808 14.5995 35.5761 5 49.164 5H55.1356C61.6912 5 67.7415 8.52183 70.9788 14.2223V14.2223C75.5749 22.3153 73.3327 32.5712 65.7788 38.0079L61.2754 41.2491C55.2817 45.5629 46.9469 44.3467 42.4357 38.5V38.5M50.5594 48.9855L65.7414 105.5" stroke="#FFEA80" stroke-width="10" stroke-miterlimit="2" stroke-linecap="round" stroke-linejoin="round"/>
</svg>
