<?xml version="1.0" encoding="UTF-8" standalone="no"?>
<svg
   width="144"
   height="144"
   viewBox="0 0 144 144"
   fill="none"
   version="1.1"
   id="svg1"
   sodipodi:docname="muscle.svg"
   inkscape:version="1.3.2 (091e20ef0f, 2023-11-25, custom)"
   xmlns:inkscape="http://www.inkscape.org/namespaces/inkscape"
   xmlns:sodipodi="http://sodipodi.sourceforge.net/DTD/sodipodi-0.dtd"
   xmlns="http://www.w3.org/2000/svg"
   xmlns:svg="http://www.w3.org/2000/svg">
  <defs
     id="defs1" />
  <sodipodi:namedview
     id="namedview1"
     pagecolor="#ffffff"
     bordercolor="#000000"
     borderopacity="0.25"
     inkscape:showpageshadow="2"
     inkscape:pageopacity="0.0"
     inkscape:pagecheckerboard="0"
     inkscape:deskcolor="#d1d1d1"
     inkscape:zoom="5.9444444"
     inkscape:cx="71.915888"
     inkscape:cy="72"
     inkscape:window-width="1920"
     inkscape:window-height="1053"
     inkscape:window-x="0"
     inkscape:window-y="27"
     inkscape:window-maximized="1"
     inkscape:current-layer="svg1" />
  <path
     d="M63.6439 112.2C68.4715 94.6125 85.3514 82.05 104.795 84.127C123.306 86.1035 138.022 101.815 138.954 120.508C139.187 125.432 138.522 130.156 137.09 134.544C136.224 137.224 133.627 139 130.797 139H31.6419C14.8352 139 2.23017 123.526 5.52626 106.944L21.2319 27.9267C23.8808 14.5995 35.5761 5 49.164 5H55.1356C61.6912 5 67.7415 8.52183 70.9788 14.2223V14.2223C75.5749 22.3153 73.3327 32.5712 65.7788 38.0079L61.2754 41.2491C55.2817 45.5629 46.9469 44.3467 42.4357 38.5V38.5M50.5594 48.9855L65.7414 105.5"
     stroke="#FFEA80"
     stroke-width="10"
     stroke-miterlimit="2"
     stroke-linecap="round"
     stroke-linejoin="round"
     id="path1"
     style="stroke:#003249;stroke-opacity:1" />
</svg>
