<svg width="133" height="142" viewBox="0 0 133 142" fill="none" xmlns="http://www.w3.org/2000/svg">
<path d="M41.3697 31.4062C35.4859 31.4068 31.3835 37.2426 33.3747 42.7792V42.7792C33.8014 43.8456 34.4415 44.6731 35.2949 45.2618C36.1483 45.845 37.107 46.1366 38.171 46.1366H94.829C95.893 46.1366 96.8517 45.845 97.7051 45.2618C98.5585 44.6731 99.1958 43.8456 99.617 42.7792V42.7792C101.612 37.2402 97.5069 31.3999 91.6197 31.4005L41.3697 31.4062ZM38.1793 54.4675C35.3198 54.4675 32.7291 53.6621 30.4071 52.0515C28.0796 50.4298 26.4171 48.2554 25.4196 45.5284L22.7963 38.0512C21.4 34.0714 17.6423 31.4075 13.4247 31.4075V31.4075C9.71177 31.4075 6.54471 30.0968 3.9235 27.4753C1.30783 24.8483 0 21.6715 0 17.9448V17.9448C0 8.03415 8.03414 0 17.9448 0H115.055C124.966 0 133 8.03415 133 17.9448V17.9448C133 21.6715 131.692 24.8455 129.076 27.467C126.461 30.0885 123.294 31.3992 119.575 31.3992V31.3992C115.331 31.3992 111.523 34.0062 109.987 37.9629L106.974 45.7283C105.943 48.2832 104.308 50.377 102.069 52.0098C99.8303 53.6483 97.2978 54.4675 94.4716 54.4675H38.1793ZM73.2828 139.034C72.6274 141.221 70.3183 142.457 68.1351 141.791V141.791C65.9344 141.118 64.7117 138.773 65.4202 136.584L66.3421 133.736C67.3839 129.876 67.6887 126.011 67.2564 122.139C66.8131 118.263 65.5164 114.569 63.3662 111.059C60.2241 106.316 58.2568 101.401 57.4643 96.3136C56.6663 91.2206 57.1318 85.925 58.8608 80.4266L59.7168 77.5669C60.3721 75.3776 62.6845 74.1405 64.8694 74.8102V74.8102C67.0682 75.4842 68.289 77.8282 67.5808 80.0162L66.6579 82.8675C65.4443 86.8053 65.073 90.7152 65.5441 94.5974C66.0096 98.4796 67.3728 102.129 69.6338 105.544C72.6041 110.287 74.5299 115.255 75.411 120.448C76.2921 125.636 75.8682 130.879 74.1392 136.177L73.2828 139.034ZM40.8641 139.034C40.2087 141.221 37.8995 142.457 35.7163 141.791V141.791C33.5157 141.118 32.2929 138.773 33.0015 136.584L33.9233 133.736C34.9651 129.904 35.2699 126.002 34.8377 122.031C34.3944 118.06 33.045 114.35 30.7895 110.901C27.5088 106.402 25.5305 101.532 24.8544 96.2886C24.1783 91.0457 24.7047 85.7583 26.4337 80.4266L27.2943 77.5633C27.9519 75.3753 30.2641 74.14 32.4484 74.8095V74.8095C34.6484 75.4839 35.87 77.8292 35.1614 80.0184L34.2392 82.8675C33.0256 86.8053 32.6543 90.7486 33.1253 94.6974C33.5908 98.6518 35.0067 102.32 37.373 105.703C40.3766 110.279 42.258 115.239 43.0172 120.582C43.7764 125.924 43.3441 131.123 41.7204 136.177L40.8641 139.034ZM104.871 139.035C104.215 141.222 101.906 142.458 99.7232 141.791V141.791C97.5222 141.118 96.2993 138.773 97.0079 136.583L97.9296 133.736C98.9714 130.015 99.2762 126.113 98.8439 122.031C98.4006 117.949 97.0512 114.239 94.7958 110.901C91.5151 106.291 89.5644 101.393 88.9437 96.2053C88.3231 91.0124 88.8218 85.7528 90.44 80.4266L91.3006 77.5633C91.9582 75.3753 94.2703 74.14 96.4547 74.8095V74.8095C98.6547 75.4839 99.8762 77.8292 99.1676 80.0184L98.2454 82.8675C97.0318 86.8386 96.6605 90.7486 97.1316 94.5974C97.5971 98.4463 98.9603 102.095 101.221 105.544C104.225 110.393 106.126 115.386 106.924 120.523C107.716 125.661 107.317 130.881 105.727 136.185L104.871 139.035Z" fill="#FFEA80"/>
</svg>
