<?xml version="1.0" encoding="UTF-8" standalone="no"?>
<svg
   width="109"
   height="109"
   viewBox="0 0 109 109"
   fill="none"
   version="1.1"
   id="svg1"
   sodipodi:docname="skin.svg"
   inkscape:version="1.3.2 (091e20ef0f, 2023-11-25, custom)"
   xmlns:inkscape="http://www.inkscape.org/namespaces/inkscape"
   xmlns:sodipodi="http://sodipodi.sourceforge.net/DTD/sodipodi-0.dtd"
   xmlns="http://www.w3.org/2000/svg"
   xmlns:svg="http://www.w3.org/2000/svg">
  <defs
     id="defs1" />
  <sodipodi:namedview
     id="namedview1"
     pagecolor="#ffffff"
     bordercolor="#000000"
     borderopacity="0.25"
     inkscape:showpageshadow="2"
     inkscape:pageopacity="0.0"
     inkscape:pagecheckerboard="0"
     inkscape:deskcolor="#d1d1d1"
     inkscape:zoom="7.853211"
     inkscape:cx="54.436332"
     inkscape:cy="54.5"
     inkscape:window-width="1920"
     inkscape:window-height="1053"
     inkscape:window-x="0"
     inkscape:window-y="27"
     inkscape:window-maximized="1"
     inkscape:current-layer="svg1" />
  <path
     d="M11.5584 109C8.26625 109 5.5156 107.898 3.3065 105.693C1.10217 103.484 0 100.734 0 97.4416C0 94.1494 1.10217 91.3987 3.3065 89.1896C5.5156 86.9853 8.26625 85.8831 11.5584 85.8831C14.8506 85.8831 17.6013 86.9853 19.8104 89.1896C22.0147 91.3987 23.1169 94.1494 23.1169 97.4416C23.1169 100.734 22.0147 103.484 19.8104 105.693C17.6013 107.898 14.8506 109 11.5584 109ZM68.8139 109C65.5217 109 62.771 107.898 60.5619 105.693C58.3576 103.484 57.2554 100.734 57.2554 97.4416C57.2554 94.1494 58.3576 91.3987 60.5619 89.1896C62.771 86.9853 65.5217 85.8831 68.8139 85.8831C72.106 85.8831 74.8567 86.9853 77.0658 89.1896C79.2701 91.3987 80.3723 94.1494 80.3723 97.4416C80.3723 100.734 79.2701 103.484 77.0658 105.693C74.8567 107.898 72.106 109 68.8139 109ZM40.1861 80.3723C36.894 80.3723 34.1433 79.2701 31.9342 77.0658C29.7299 74.8567 28.6277 72.106 28.6277 68.8139C28.6277 65.5217 29.7299 62.771 31.9342 60.5619C34.1433 58.3576 36.894 57.2554 40.1861 57.2554C43.4783 57.2554 46.229 58.3576 48.4381 60.5619C50.6424 62.771 51.7446 65.5217 51.7446 68.8139C51.7446 72.106 50.6424 74.8567 48.4381 77.0658C46.229 79.2701 43.4783 80.3723 40.1861 80.3723ZM97.4416 80.3723C94.1494 80.3723 91.3987 79.2701 89.1896 77.0658C86.9853 74.8567 85.8831 72.106 85.8831 68.8139C85.8831 65.5217 86.9853 62.771 89.1896 60.5619C91.3987 58.3576 94.1494 57.2554 97.4416 57.2554C100.734 57.2554 103.484 58.3576 105.693 60.5619C107.898 62.771 109 65.5217 109 68.8139C109 72.106 107.898 74.8567 105.693 77.0658C103.484 79.2701 100.734 80.3723 97.4416 80.3723ZM11.5584 51.7446C8.26625 51.7446 5.5156 50.6424 3.3065 48.4381C1.10217 46.229 0 43.4783 0 40.1861C0 36.894 1.10217 34.1433 3.3065 31.9342C5.5156 29.7299 8.26625 28.6277 11.5584 28.6277C14.8506 28.6277 17.6013 29.7299 19.8104 31.9342C22.0147 34.1433 23.1169 36.894 23.1169 40.1861C23.1169 43.4783 22.0147 46.229 19.8104 48.4381C17.6013 50.6424 14.8506 51.7446 11.5584 51.7446ZM68.8139 51.7446C65.5217 51.7446 62.771 50.6424 60.5619 48.4381C58.3576 46.229 57.2554 43.4783 57.2554 40.1861C57.2554 36.894 58.3576 34.1433 60.5619 31.9342C62.771 29.7299 65.5217 28.6277 68.8139 28.6277C72.106 28.6277 74.8567 29.7299 77.0658 31.9342C79.2701 34.1433 80.3723 36.894 80.3723 40.1861C80.3723 43.4783 79.2701 46.229 77.0658 48.4381C74.8567 50.6424 72.106 51.7446 68.8139 51.7446ZM40.1861 23.1169C36.894 23.1169 34.1433 22.0147 31.9342 19.8104C29.7299 17.6013 28.6277 14.8506 28.6277 11.5584C28.6277 8.26625 29.7299 5.5156 31.9342 3.3065C34.1433 1.10217 36.894 0 40.1861 0C43.4783 0 46.229 1.10217 48.4381 3.3065C50.6424 5.5156 51.7446 8.26625 51.7446 11.5584C51.7446 14.8506 50.6424 17.6013 48.4381 19.8104C46.229 22.0147 43.4783 23.1169 40.1861 23.1169ZM97.4416 23.1169C94.1494 23.1169 91.3987 22.0147 89.1896 19.8104C86.9853 17.6013 85.8831 14.8506 85.8831 11.5584C85.8831 8.26625 86.9853 5.5156 89.1896 3.3065C91.3987 1.10217 94.1494 0 97.4416 0C100.734 0 103.484 1.10217 105.693 3.3065C107.898 5.5156 109 8.26625 109 11.5584C109 14.8506 107.898 17.6013 105.693 19.8104C103.484 22.0147 100.734 23.1169 97.4416 23.1169Z"
     fill="#FFEA80"
     id="path1"
     style="fill:#003249;fill-opacity:1" />
</svg>
