<svg width="144" height="157" viewBox="0 0 144 157" fill="none" xmlns="http://www.w3.org/2000/svg">
<path d="M0 65.5994C0 57.6735 2.5367 50.5908 7.52554 44.3512V44.3512C16.2466 33.4438 27.4453 22.5129 37.2467 12.565C38.4388 11.3551 39.7212 10.2019 41.0945 9.10634C48.7046 3.03545 57.3294 0 67.138 0C76.6083 0 85.1486 2.95113 92.6741 8.85339C99.59 14.2775 104.221 21.1259 106.698 29.3331C107.085 30.6172 108.244 31.5349 109.585 31.5349V31.5349C119.056 31.5349 127.173 34.8233 133.938 41.4844C140.618 48.0612 144 56.1558 144 65.515C144 70.5741 142.985 75.3802 140.871 79.8491C138.794 84.2411 135.981 88.063 132.353 91.2348C132.232 91.3405 132.162 91.493 132.162 91.6536V91.6536C132.162 96.6284 130.555 101.097 127.427 105.06V105.06C122.009 111.923 114.949 118.705 108.841 124.962C108.535 125.276 108.219 125.584 107.894 125.887C106.615 127.079 105.254 128.125 103.816 129.023C99.9428 131.441 97.7475 137.594 97.7475 142.16V142.16C97.7475 146.207 96.31 149.664 93.4351 152.615C90.5602 155.482 87.0934 157 83.0346 157C78.9759 157 75.5091 155.567 72.6342 152.615C69.7593 149.749 68.3218 146.207 68.3218 142.16C68.3218 140.825 68.4979 139.49 68.899 138.156C69.017 137.763 68.7318 137.354 68.3218 137.354V137.354C63.4175 137.354 59.1897 135.583 55.6383 132.042C52.0869 128.501 50.3112 124.285 50.3112 119.394C50.3112 119.194 50.3142 118.995 50.3201 118.798C50.4652 113.979 49.0389 108.468 46.1218 104.63C45.8769 104.308 45.6408 103.977 45.4137 103.638C43.9552 101.463 41.6735 99.8325 39.0547 99.8325H32.5978C32.5738 99.8325 32.5543 99.813 32.5543 99.7889V99.7889C32.5543 99.766 32.5364 99.747 32.5135 99.7454C23.4836 99.1472 15.8025 95.6066 9.47035 89.0397C3.1286 82.463 0 74.7057 0 65.5994ZM11.8379 63.4914C11.8379 70.2368 14.2055 75.9705 18.9407 80.6923C23.6759 85.4141 29.4257 87.775 36.1057 87.775V87.775C41.9953 87.775 48.7766 91.1924 52.2319 95.9619C53.4339 97.621 54.8523 99.1641 56.4839 100.591C61.3036 104.807 67.0534 106.831 73.5643 106.831C75.6542 106.831 77.6555 106.62 79.568 106.2C87.3822 104.484 97.3572 105.06 105.358 105.06V105.06C110.177 105.06 114.236 103.374 117.703 100.001C118.104 99.6013 118.481 99.1909 118.834 98.7699C123.663 93.018 127.259 85.5396 130.809 78.9216V78.9216C132.754 75.3802 133.769 71.5016 133.769 67.37C133.769 60.7089 131.401 54.9753 126.581 50.3378C121.762 45.7003 116.012 43.3394 109.247 43.3394C106.859 43.3394 104.579 43.661 102.406 44.2935C100.073 44.9726 96.9865 42.8183 96.9865 40.3883V40.3883C96.9865 32.2938 94.1116 25.3797 88.2772 19.6461C82.4428 13.9125 75.4245 11.13 67.2225 11.13C59.2742 11.13 52.4251 13.9125 46.6753 19.3088C41.2793 24.373 38.2663 30.6254 37.7062 37.8569C37.6444 38.6558 36.9915 39.2922 36.1903 39.2922V39.2922C29.5103 39.2922 23.845 41.6531 19.0252 46.3749C14.2055 51.0967 11.8379 56.9146 11.8379 63.4914Z" fill="#FFEA80"/>
</svg>
