<svg width="18" height="21" viewBox="0 0 18 21" fill="none" xmlns="http://www.w3.org/2000/svg">
<path d="M14.3655 3.15412C13.5987 2.28263 13.1762 1.16344 13.1765 0.00488281H9.71033V13.8526C9.6836 14.602 9.36581 15.3118 8.8239 15.8325C8.28198 16.3533 7.55822 16.6444 6.80503 16.6445C5.21217 16.6445 3.88852 15.349 3.88852 13.7409C3.88852 11.8201 5.7506 10.3795 7.66877 10.9714V7.44245C3.79878 6.92874 0.411133 9.92163 0.411133 13.7409C0.411133 17.4597 3.50713 20.1064 6.79382 20.1064C10.3161 20.1064 13.1765 17.2587 13.1765 13.7409V6.71656C14.582 7.72147 16.2695 8.26063 18 8.25767V4.80691C18 4.80691 15.8911 4.90742 14.3655 3.15412Z" fill="#FFEA80"/>
</svg>
