<?xml version="1.0" encoding="UTF-8" standalone="no"?>
<svg
   width="20"
   height="21"
   viewBox="0 0 20 21"
   fill="none"
   version="1.1"
   id="svg1"
   sodipodi:docname="Vector-1.svg"
   inkscape:version="1.3.2 (091e20ef0f, 2023-11-25, custom)"
   xmlns:inkscape="http://www.inkscape.org/namespaces/inkscape"
   xmlns:sodipodi="http://sodipodi.sourceforge.net/DTD/sodipodi-0.dtd"
   xmlns="http://www.w3.org/2000/svg"
   xmlns:svg="http://www.w3.org/2000/svg">
  <defs
     id="defs1" />
  <sodipodi:namedview
     id="namedview1"
     pagecolor="#ffffff"
     bordercolor="#000000"
     borderopacity="0.25"
     inkscape:showpageshadow="2"
     inkscape:pageopacity="0.0"
     inkscape:pagecheckerboard="0"
     inkscape:deskcolor="#d1d1d1"
     inkscape:zoom="40.761905"
     inkscape:cx="9.9970794"
     inkscape:cy="10.5"
     inkscape:window-width="1920"
     inkscape:window-height="1053"
     inkscape:window-x="0"
     inkscape:window-y="27"
     inkscape:window-maximized="1"
     inkscape:current-layer="svg1" />
  <path
     d="M11.0099 0.502441C12.1123 0.505381 12.6718 0.511261 13.1549 0.52498L13.345 0.531839C13.5645 0.539679 13.781 0.549478 14.0427 0.561237C15.0853 0.610233 15.7967 0.774861 16.4209 1.0169C17.0676 1.2658 17.6125 1.6029 18.1573 2.14676C18.6556 2.63662 19.0411 3.22917 19.2871 3.88319C19.5291 4.5074 19.6938 5.21883 19.7428 6.26245C19.7545 6.52311 19.7643 6.73967 19.7722 6.96016L19.778 7.15026C19.7927 7.63239 19.7986 8.19192 19.8006 9.29434L19.8016 10.0254V11.3091C19.804 12.0238 19.7964 12.7386 19.779 13.4531L19.7731 13.6433C19.7653 13.8637 19.7555 14.0803 19.7437 14.341C19.6947 15.3846 19.5282 16.095 19.2871 16.7202C19.0418 17.3746 18.6562 17.9673 18.1573 18.4567C17.6673 18.9548 17.0748 19.3403 16.4209 19.5865C15.7967 19.8286 15.0853 19.9932 14.0427 20.0422C13.8102 20.0531 13.5776 20.0629 13.345 20.0716L13.1549 20.0775C12.6718 20.0912 12.1123 20.098 11.0099 20.1L10.2789 20.101H8.9962C8.28113 20.1034 7.56606 20.0959 6.8512 20.0784L6.6611 20.0726C6.42849 20.0637 6.19592 20.0536 5.96342 20.0422C4.9208 19.9932 4.2094 19.8286 3.58422 19.5865C2.9303 19.3409 2.338 18.9553 1.84882 18.4567C1.35009 17.967 0.96419 17.3744 0.718015 16.7202C0.47598 16.096 0.311357 15.3846 0.262362 14.341C0.251445 14.1084 0.241646 13.8759 0.232965 13.6433L0.228066 13.4531C0.210008 12.7386 0.201842 12.0238 0.203568 11.3091V9.29434C0.200833 8.57958 0.20802 7.86482 0.225126 7.15026L0.231985 6.96016C0.239825 6.73967 0.249624 6.52311 0.261382 6.26245C0.310377 5.21883 0.475 4.50838 0.717035 3.88319C0.963102 3.2285 1.34978 2.63576 1.8498 2.14676C2.33886 1.64844 2.93077 1.26285 3.58422 1.0169C4.2094 0.774861 4.91982 0.610233 5.96342 0.561237C6.22407 0.549478 6.44161 0.539679 6.6611 0.531839L6.8512 0.52596C7.56574 0.508549 8.28048 0.501036 8.99522 0.503421L11.0099 0.502441ZM10.0026 5.40207C8.70313 5.40207 7.45693 5.91828 6.53809 6.83714C5.61926 7.756 5.10306 9.00224 5.10306 10.3017C5.10306 11.6012 5.61926 12.8474 6.53809 13.7663C7.45693 14.6851 8.70313 15.2013 10.0026 15.2013C11.302 15.2013 12.5482 14.6851 13.467 13.7663C14.3859 12.8474 14.9021 11.6012 14.9021 10.3017C14.9021 9.00224 14.3859 7.756 13.467 6.83714C12.5482 5.91828 11.302 5.40207 10.0026 5.40207ZM10.0026 7.36193C10.3886 7.36186 10.7709 7.43784 11.1276 7.58552C11.4843 7.73319 11.8084 7.94968 12.0814 8.22262C12.3544 8.49556 12.571 8.8196 12.7188 9.17625C12.8666 9.53289 12.9427 9.91516 12.9427 10.3012C12.9428 10.6873 12.8668 11.0696 12.7192 11.4263C12.5715 11.783 12.355 12.1071 12.0821 12.3801C11.8091 12.6531 11.4851 12.8697 11.1285 13.0175C10.7718 13.1653 10.3896 13.2414 10.0035 13.2415C9.22388 13.2415 8.47616 12.9318 7.92486 12.3804C7.37356 11.8291 7.06384 11.0814 7.06384 10.3017C7.06384 9.52203 7.37356 8.77428 7.92486 8.22297C8.47616 7.67165 9.22388 7.36193 10.0035 7.36193M15.148 3.93218C14.8232 3.93218 14.5116 4.06124 14.2819 4.29095C14.0522 4.52067 13.9231 4.83223 13.9231 5.15709C13.9231 5.48196 14.0522 5.79352 14.2819 6.02323C14.5116 6.25295 14.8232 6.382 15.148 6.382C15.4729 6.382 15.7844 6.25295 16.0141 6.02323C16.2438 5.79352 16.3729 5.48196 16.3729 5.15709C16.3729 4.83223 16.2438 4.52067 16.0141 4.29095C15.7844 4.06124 15.4729 3.93218 15.148 3.93218Z"
     fill="#FFEA80"
     id="path1"
     style="fill:#039db9;fill-opacity:1" />
</svg>
