<svg width="38" height="38" viewBox="0 0 38 38" fill="none" xmlns="http://www.w3.org/2000/svg">
<path d="M32.108 5.88359C30.4034 4.17036 28.3731 2.81199 26.1353 1.8877C23.8976 0.963412 21.4972 0.491712 19.0744 0.50011C8.92261 0.50011 0.648744 8.73258 0.648744 18.8336C0.648744 22.071 1.50402 25.216 3.10301 27.991L0.5 37.5L10.2613 34.947C12.9573 36.4085 15.9879 37.1855 19.0744 37.1855C29.2261 37.1855 37.5 28.953 37.5 18.8521C37.5 13.9496 35.5849 9.34308 32.108 5.88359ZM19.0744 34.0775C16.3226 34.0775 13.6266 33.3375 11.2653 31.95L10.7075 31.617L4.90653 33.134L6.44975 27.51L6.07789 26.9365C4.54908 24.5074 3.7373 21.6996 3.73518 18.8336C3.73518 10.4346 10.6146 3.5896 19.0558 3.5896C23.1462 3.5896 26.995 5.1806 29.8769 8.06659C31.3039 9.47992 32.4347 11.161 33.2039 13.0124C33.9731 14.8638 34.3653 16.8487 34.3578 18.8521C34.395 27.251 27.5156 34.0775 19.0744 34.0775ZM27.4784 22.6815C27.0136 22.4595 24.7452 21.3495 24.3362 21.183C23.9085 21.035 23.6111 20.9611 23.295 21.405C22.9789 21.8675 22.105 22.9035 21.8447 23.1995C21.5844 23.514 21.3055 23.551 20.8407 23.3105C20.3759 23.0885 18.8884 22.589 17.1407 21.035C15.7648 19.8141 14.8538 18.3156 14.5749 17.8531C14.3146 17.3906 14.5377 17.1501 14.7794 16.9096C14.9839 16.7061 15.2442 16.3731 15.4673 16.1141C15.6905 15.8551 15.7834 15.6516 15.9322 15.3556C16.0809 15.0411 16.0065 14.7821 15.895 14.5601C15.7834 14.3381 14.8538 12.0811 14.4819 11.1561C14.11 10.2681 13.7196 10.3791 13.4407 10.3606H12.5482C12.2322 10.3606 11.7487 10.4716 11.3211 10.9341C10.9121 11.3966 9.72211 12.5066 9.72211 14.7636C9.72211 17.0206 11.3769 19.2036 11.6 19.4996C11.8231 19.8141 14.8538 24.439 19.4648 26.4185C20.5618 26.8995 21.4171 27.177 22.0864 27.3805C23.1834 27.732 24.1874 27.6765 24.9869 27.5655C25.8794 27.436 27.7201 26.4555 28.092 25.3825C28.4824 24.3095 28.4824 23.403 28.3523 23.1995C28.2221 22.996 27.9432 22.9035 27.4784 22.6815Z" fill="#86762D"/>
</svg>
